<svg id="logo-p4-icon-reg" xmlns="http://www.w3.org/2000/svg"
	 x="0px" y="0px" width="496.305px" height="557.075px" viewBox="232.061 1.89 496.305 557.075"
	 style="enable-background:new 232.061 1.89 496.305 557.075;" xml:space="preserve">
<path d="M727.939,500.58V59.42c0-29.924-20.092-44.458-28.642-49.588s-31.206-14.962-57.282,0l-4.703,2.565L361.588,172.275l0,0
	l-8.55,5.13l-1.71,0.855l-90.626,52.58c-26.076,14.534-28.641,39.328-28.641,49.16s2.992,34.626,28.641,49.588L463.328,448
	c0.855-1.71,1.282-3.848,2.565-5.558l44.458-76.519L399.634,300.52c-12.825-7.268-18.382-22.229-14.107-35.909
	c0.855-9.832,6.412-19.237,15.389-24.794l198.352-114.565c10.687-5.985,23.511-5.13,32.916,1.282
	c10.259,5.13,17.526,15.817,17.526,28.214v13.679l-62.412,35.909l0,0l-115.42,66.259l115.42,66.687V273.16l62.412-35.908V386.87
	c0,6.412-2.138,12.397-5.558,17.526c0,0.428-0.428,0.855-0.854,1.283c-8.55,14.962-27.786,20.091-42.748,11.542l-36.764-19.664
	l-44.458,76.519c-0.854,1.71-2.138,3.42-3.42,5.13l126.534,71.816c25.649,14.962,48.733,5.13,57.282,0
	c8.55-5.129,28.642-19.664,28.642-49.587L727.939,500.58z"/>
</svg>
