<?xml version="1.0" encoding="UTF-8"?>
<svg id="peforce" xmlns="http://www.w3.org/2000/svg" version="1.1">
   <g>
    <path stroke="currentColor" d="M200.37,4.78c-11.04-6.37-24.22-6.37-35.26,0l-92.86,53.61c-11.04,6.37-17.63,17.79-17.63,30.54,0,10.73,4.68,20.5,12.73,27.13l20.85-12.04-5.28-3.04c-6.28-3.62-6.95-9.62-6.95-12.04s.68-8.41,6.95-12.04l92.86-53.61c6.28-3.62,11.81-1.21,13.9,0,2.09,1.21,6.95,4.8,6.95,12.04v107.21c0,7.25-4.86,10.83-6.95,12.04-2.09,1.21-7.63,3.62-13.9,0l-24.69-14.25-21.36,12.33,35.37,20.42c11.04,6.37,24.22,6.37,35.26,0,11.04-6.37,17.63-17.79,17.63-30.54V35.32c0-12.75-6.59-24.17-17.63-30.54h0Z"/>
    <path stroke="currentColor" d="M150.64,61.79l-20.85,12.04,5.29,3.05c6.28,3.62,6.95,9.62,6.95,12.04s-.68,8.41-6.95,12.04l-92.86,53.61c-6.28,3.62-11.81,1.21-13.9,0-2.09-1.21-6.95-4.8-6.95-12.04V35.32c0-7.25,4.86-10.83,6.95-12.04,2.1-1.21,7.63-3.62,13.9,0l24.57,14.19,21.35-12.33L52.89,4.78c-11.04-6.37-24.22-6.37-35.26,0C6.59,11.15,0,22.57,0,35.32v107.21c0,12.75,6.59,24.16,17.63,30.54,11.04,6.37,24.22,6.37,35.26,0l92.86-53.61c11.04-6.37,17.63-17.78,17.63-30.54,0-10.73-4.68-20.5-12.74-27.13h.01Z"/>
  </g>
</svg>