<?xml version="1.0" encoding="utf-8"?>
<!-- Generator: Adobe Illustrator 16.0.3, SVG Export Plug-In . SVG Version: 6.00 Build 0)  -->
<!DOCTYPE svg PUBLIC "-//W3C//DTD SVG 1.0//EN" "http://www.w3.org/TR/2001/REC-SVG-20010904/DTD/svg10.dtd">
<svg version="1.0" id="peforce" xmlns="http://www.w3.org/2000/svg" xmlns:xlink="http://www.w3.org/1999/xlink" x="0px" y="0px"
	 width="702.855px" height="577.132px" viewBox="328.069 -9.064 702.855 577.132"
	 style="enable-background:new 328.069 -9.064 702.855 577.132;" xml:space="preserve">
<style type="text/css">
<![CDATA[
	.st0{fill:none;stroke:#000000;stroke-width:20;}
]]>
</style>
<g>
	<path class="st0" d="M965.698,15.901h0.034"/>
	<path class="st0" d="M965.698,15.901L965.698,15.901"/>
	<path class="st0" d="M965.732,15.901c-34.58-19.954-75.868-19.954-110.451,0L564.394,183.836
		c-34.583,19.954-55.228,55.728-55.228,95.667c0,33.612,14.661,64.217,39.876,84.984l65.314-37.713l-16.54-9.523
		c-19.673-11.339-21.772-30.135-21.772-37.713c0-7.581,2.131-26.346,21.772-37.716L888.701,73.887
		c19.673-11.339,36.995-3.792,43.545,0c6.544,3.789,21.772,15.036,21.772,37.713v335.838c0,22.712-15.226,33.925-21.772,37.714
		c-6.547,3.792-23.903,11.338-43.545,0l-77.34-44.639l-66.912,38.624l110.798,63.965c34.583,19.954,75.868,19.954,110.451,0
		s55.227-55.729,55.227-95.667V111.568c0-39.938-20.644-75.713-55.227-95.667"/>
	<path class="st0" d="M799.5,193.167l-54.859,39.035l8.285,4.777l8.286,4.777c9.837,5.669,15.279,13.203,18.264,20.267
		c2.983,7.064,3.509,13.659,3.509,17.449c0,3.79-0.533,10.376-3.521,17.437c-2.988,7.059-8.431,14.592-18.252,20.277L615.77,401.152
		L470.327,485.12c-9.836,5.669-19.085,6.616-26.693,5.673s-13.575-3.778-16.849-5.673c-3.273-1.896-8.716-5.655-13.341-11.775
		s-8.431-14.601-8.431-25.94V279.486V111.568c0-11.355,3.806-19.837,8.43-25.953s10.067-9.867,13.342-11.763
		c3.29-1.895,9.265-4.729,16.873-5.673s16.849,0.003,26.669,5.673l38.483,22.226l38.484,22.227l33.44-19.313l33.44-19.312
		l-55.213-31.889l-55.212-31.89c-17.292-9.977-36.26-14.965-55.228-14.965s-37.936,4.989-55.227,14.965
		s-31.098,23.909-40.582,40.339s-14.645,35.358-14.645,55.328v167.919v167.919c0,19.97,5.161,38.89,14.645,55.315
		c9.484,16.427,23.291,30.359,40.582,40.352c17.292,9.977,36.259,14.965,55.227,14.965s37.936-4.988,55.228-14.965l145.442-83.968
		l145.441-83.968c17.292-9.977,31.099-23.9,40.583-40.327c9.483-16.426,14.645-35.354,14.645-55.34
		C852.167,260.167,820.833,214.167,799.5,193.167z"/>
</g>
</svg>
