<svg xmlns="http://www.w3.org/2000/svg" width="663.857" height="538.133" viewBox="-331.429 291.434 663.857 538.133"><g stroke="currentColor" fill="currentColor"><path d="M231.476 829.066c-17.406 0-34.775-4.713-50.228-13.627l-95.794-55.305 46.91-27.079 72.341 41.754c8.428 4.864 17.364 7.331 26.561 7.33 12.466 0 22.267-4.598 26.995-7.338 8.044-4.653 26.761-18.497 26.761-46.367V392.599c0-27.864-18.715-41.708-26.762-46.367-4.734-2.741-14.534-7.338-26.981-7.338-9.191 0-18.131 2.466-26.566 7.328L-86.181 514.159c-24.165 13.988-26.772 37.092-26.772 46.376 0 9.303 2.609 32.447 26.779 46.377l1.514.871-44.073 25.448c-19.843-18.772-31.098-44.91-31.098-72.731 0-36.334 18.775-68.859 50.226-87.005l290.891-167.937c15.448-8.913 32.815-13.625 50.227-13.625 16.813 0 33.583 4.394 48.626 12.722l1.566.905c31.449 18.145 50.225 50.67 50.225 87.005v335.866c0 36.334-18.775 68.859-50.225 87.008-15.452 8.915-32.821 13.627-50.229 13.627z"/><path d="M-230.474 829.037c-17.409 0-34.778-4.712-50.229-13.627-31.447-18.173-50.226-50.699-50.226-87.005V392.566c0-36.334 18.775-68.86 50.226-87.005 15.451-8.915 32.82-13.627 50.229-13.627 17.408 0 34.776 4.712 50.229 13.627l95.428 55.117-46.886 27.076-71.966-41.563c-8.428-4.865-17.36-7.332-26.549-7.332-12.412 0-22.234 4.59-26.985 7.326-8.065 4.669-26.781 18.513-26.781 46.382v335.836c0 27.859 18.713 41.709 26.76 46.369 4.736 2.74 14.537 7.338 26.982 7.338 9.19 0 18.128-2.465 26.563-7.327L87.213 606.845c24.165-13.986 26.772-37.091 26.772-46.373 0-9.306-2.609-32.45-26.778-46.381l-1.556-.896 44.087-25.457c19.86 18.766 31.125 44.903 31.125 72.733 0 36.333-18.775 68.859-50.227 87.004l-290.883 167.937c-15.448 8.913-32.817 13.625-50.227 13.625z"/></g></svg>