
<svg id="swarm-review" xmlns="http://www.w3.org/2000/svg" viewBox="257.656 122.409 698.492 639.734">
  <g>
    <path stroke="currentColor" d="M606.648,123.062c80.382-0.002,160.768,0.404,241.146-0.151c50.447-0.348,96.547,34.429,106.161,86.665
      c0.919,4.99,1.553,10.113,1.558,15.175c0.09,95.511,0.299,191.023-0.102,286.533c-0.1,23.881-6.76,46.783-15.955,68.695
      c-39.949,95.185-111.634,152.655-211.31,176.139c-13.364,3.147-27.262,4.599-40.997,5.455c-15.66,0.976-28.006-8.285-32.907-22.773
      c-5.203-15.382-0.85-29.674,11.577-39.533c13.673-10.848,27.74-21.313,40.48-33.188c12.698-11.834,22.694-26.079,29.235-42.416
      c0.803-2.005,1.882-4.255,1.613-6.225c-0.228-1.668-1.952-3.534-3.518-4.49c-1.206-0.736-3.192-0.219-4.832-0.219
      c-121.576-0.001-243.152,0.041-364.729-0.013c-53.511-0.023-98.569-40.004-104.983-93.008c-0.546-4.503-0.886-9.063-0.888-13.596
      c-0.049-93.142-0.053-186.282-0.03-279.425c0.013-50.236,39.052-95.265,88.84-102.398c5.382-0.771,10.867-1.168,16.305-1.174
      C444.426,123.042,525.537,123.065,606.648,123.062z M607.165,182.252c-80.012,0-160.022-0.082-240.033,0.044
      c-28.664,0.045-48.427,20.01-48.435,48.524c-0.023,91.31,0.006,182.623,0.063,273.932c0.002,3.993,0.058,8.064,0.797,11.964
      c3.826,20.172,22.454,36.946,46.957,36.828c83.107-0.404,166.219-0.144,249.327-0.146c49.392-0.001,98.784,0.095,148.176-0.077
      c22.174-0.076,40.668,13.799,38.742,39.471c-1.842,24.567-8.29,47.516-19.593,69.246c-1.427,2.743-3.117,5.353-4.445,8.138
      c-0.467,0.979-0.213,2.3-0.29,3.464c1.146,0.03,2.38,0.342,3.417,0.021c1.36-0.422,2.578-1.322,3.837-2.053
      c32.931-19.114,59.482-44.953,80.035-76.873c17.308-26.881,29.464-55.876,29.599-88.337c0.388-92.584,0.159-185.171,0.165-277.756
      c0-10.336-2.916-19.708-9.281-27.95c-10.729-13.893-25.322-18.533-42.284-18.505C764.998,182.317,686.082,182.246,607.165,182.252z
      "/>
    <path stroke="currentColor" d="M738.095,370.158c-20.854-19.666-41.161-38.749-61.378-57.924c-5.771-5.475-12.372-10.326-14.838-18.507
      c-3.529-11.698,0.664-23.677,10.649-30.178c9.801-6.377,23.388-5.348,32.319,2.986c17.32,16.16,34.428,32.551,51.608,48.859
      c12.159,11.543,24.352,23.05,36.427,34.679c13.17,12.681,13.298,29.3,0.17,41.786c-28.517,27.128-57.206,54.076-85.718,81.211
      c-7.584,7.218-16.298,10.267-26.478,7.956c-10.081-2.29-16.666-8.704-19.301-18.742c-2.621-9.988-0.129-18.866,7.256-26.001
      c17.43-16.842,35.045-33.489,52.587-50.215C726.778,380.94,732.162,375.812,738.095,370.158z"/>
    <path stroke="currentColor" d="M475.238,370.502c13.166,12.523,26.064,24.783,38.951,37.057c10.155,9.671,20.499,19.155,30.396,29.084
      c14.801,14.849,7.91,39.521-12.423,44.401c-9.896,2.375-18.581-0.617-26.016-7.697c-23.214-22.105-46.537-44.094-69.817-66.129
      c-5.82-5.509-11.797-10.862-17.422-16.563c-11.468-11.621-11.334-28.125,0.389-39.387c29.159-28.009,58.451-55.879,87.637-83.861
      c7.832-7.511,17.021-9.697,27.184-6.686c19.025,5.635,24.76,29.87,10.262,44.026c-16.938,16.539-34.328,32.613-51.509,48.905
      C487.075,359.145,481.323,364.683,475.238,370.502z"/>
  </g>
</svg>
