<svg id="swarm-review" xmlns="http://www.w3.org/2000/svg" x="0px" y="0px" width="591.563px" height="540.123px" viewBox="-295.281 290.438 591.563 540.123">
  <g>
    <path stroke="currentColor" fill="currentColor" d="M68.783,830.062c-8.202,0-14.534-4.812-17.372-13.2c-3.16-9.343-0.782-17.491,6.876-23.567
      c2.611-2.071,5.239-4.128,7.869-6.185c9.414-7.364,19.15-14.979,28.17-23.386c12.438-11.592,21.878-25.295,28.057-40.729
      l0.234-0.574c0.944-2.296,2.373-5.766,1.803-9.943c-0.702-5.12-4.477-9.096-7.773-11.11c-1.973-1.204-4.264-1.813-6.813-1.813
      c-0.857,0-1.625,0.066-2.187,0.114c-0.175,0.016-0.349,0.034-0.518,0.041l-195.023,0.012c-41.396,0-82.773-0.005-124.169-0.022
      c-41.727-0.021-76.969-31.237-81.976-72.617c-0.473-3.897-0.703-7.398-0.704-10.705c-0.039-74.564-0.048-154.571-0.026-244.592
      c0.01-39.157,30.401-74.183,69.188-79.739c4.253-0.608,8.581-0.921,12.867-0.927c45.772-0.041,91.556-0.047,137.332-0.047
      l75.957,0.001c20.824,0,41.651,0.031,62.479,0.062c20.837,0.031,41.674,0.063,62.509,0.063c33.268,0,60.556-0.081,85.878-0.256
      l0.589-0.002c40.55,0,75.22,28.461,82.437,67.675c0.803,4.355,1.193,8.113,1.199,11.487l0.044,41.306
      c0.079,68.654,0.159,139.647-0.135,209.46c-0.071,17.144-4.263,35.035-13.188,56.306c-16.611,39.578-40.172,72.142-70.026,96.786
      c-29.342,24.223-65.685,41.562-108.019,51.535c-9.571,2.254-20.124,3.649-34.217,4.527
      C69.673,830.048,69.225,830.062,68.783,830.062z M142.249,753.377c-0.981,1.043-1.761,2.099-2.574,3.2
      c-0.836,1.132-1.876,2.54-3.568,4.527l-20.231,23.752l30.27-7.565c4.838-1.209,9.505-3.282,12.628-5.544
      c1.089-0.517,1.979-1.068,2.655-1.487c0.197-0.122,0.395-0.246,0.593-0.361c29.705-17.241,54.416-40.971,73.448-70.526
      c18.396-28.565,27.391-55.617,27.503-82.699c0.245-58.659,0.207-118.29,0.171-175.957c-0.014-22.406-0.027-44.814-0.025-67.223
      c0-11.517-3.436-21.804-10.208-30.578c-10.44-13.518-25.095-20.088-44.802-20.088h-0.146c-28.994,0.047-60.112,0.069-100.898,0.069
      L0.729,322.883c-19.759,0-39.521-0.006-59.282-0.011c-19.765-0.006-39.527-0.012-59.289-0.012c-35.769,0-64.861,0.02-91.56,0.062
      c-30.345,0.047-52.374,22.116-52.381,52.475c-0.02,72.394-0.002,148.592,0.055,239.799c0.002,3.921,0.071,8.103,0.874,12.33
      c4.438,23.395,25.761,40.374,50.702,40.374l0.276-0.001c27.797-0.135,58.127-0.197,95.449-0.197c20.379,0,40.754,0.018,61.13,0.036
      c20.381,0.018,40.762,0.034,61.145,0.034H9.1c11.246,0,22.493,0.007,33.739,0.013c11.251,0.005,22.501,0.011,33.751,0.011
      c24.636,0,43.597-0.027,61.48-0.09h0.123c7.907,0,14.594,2.513,18.825,7.074c3.814,4.11,5.482,9.739,4.958,16.729
      c-1.525,20.356-6.775,38.919-16.051,56.749c-0.342,0.658-1.11,1.667-1.854,2.644C143.5,751.65,142.872,752.476,142.249,753.377z"/>
    <path stroke="currentColor" fill="currentColor" d="M70.958,585.083c-1.109,0-2.29-0.142-3.508-0.417c-5.166-1.173-8.077-4.009-9.438-9.193
      c-1.378-5.255-0.26-9.272,3.628-13.027c10.884-10.518,22.047-21.135,32.843-31.401c4.384-4.168,8.767-8.336,13.144-12.51
      l22.253-21.201l-22.769-21.462c-13.288-12.52-25.84-24.344-38.615-36.463c-0.872-0.825-1.765-1.638-2.656-2.45
      c-4.11-3.739-6.678-6.193-7.638-9.379c-1.804-5.974,0.238-11.92,5.201-15.152c2.002-1.303,4.396-1.992,6.916-1.992
      c3.422,0,6.651,1.256,9.096,3.536c11.185,10.437,22.471,21.175,33.386,31.559c3.908,3.721,7.817,7.438,11.729,11.152l6.989,6.629
      c8.168,7.744,16.614,15.752,24.846,23.68c3.704,3.565,5.655,7.471,5.645,11.292c-0.015,4.685-2.972,8.479-5.45,10.836
      c-12.271,11.675-24.793,23.512-36.899,34.958c-12.512,11.828-25.446,24.058-38.137,36.134
      C76.93,584.577,73.294,585.083,70.958,585.083z"/>
    <path stroke="currentColor" fill="currentColor" d="M-70.671,585.138c-3.511,0-6.823-1.531-10.132-4.682c-14.604-13.905-29.494-27.984-43.896-41.602
      c-5.748-5.435-11.497-10.868-17.242-16.308c-1.588-1.502-3.188-2.991-4.788-4.48c-3.578-3.33-6.959-6.476-10.219-9.778
      c-3.032-3.073-4.609-6.631-4.56-10.288c0.048-3.599,1.677-7.04,4.71-9.955c14.149-13.592,28.578-27.379,42.532-40.712
      c11.397-10.89,22.796-21.78,34.175-32.69c2.998-2.875,5.981-4.213,9.394-4.213c1.444,0,3.006,0.246,4.644,0.73
      c4.342,1.286,7.462,4.568,8.561,9.004c1.144,4.617-0.249,9.399-3.725,12.792c-10.039,9.803-20.467,19.61-30.551,29.095
      c-4.816,4.531-9.635,9.063-14.434,13.614c-3.545,3.357-7.073,6.74-10.695,10.211l-4.77,4.567l-7.577,7.246l17.866,16.994
      c7.997,7.604,15.911,15.132,23.82,22.665c2.653,2.527,5.32,5.039,7.988,7.552c6.123,5.767,12.454,11.729,18.434,17.728
      c3.57,3.582,4.859,8.317,3.536,12.993c-1.307,4.615-4.827,7.93-9.661,9.09C-68.438,584.994-69.587,585.138-70.671,585.138z"/>
  </g>
</svg>
