<?xml version="1.0" encoding="utf-8"?>
<!-- Generator: Adobe Illustrator 16.0.3, SVG Export Plug-In . SVG Version: 6.00 Build 0)  -->
<!DOCTYPE svg PUBLIC "-//W3C//DTD SVG 1.0//EN" "http://www.w3.org/TR/2001/REC-SVG-20010904/DTD/svg10.dtd">
<svg version="1.0" id="swarm-review" xmlns="http://www.w3.org/2000/svg" xmlns:xlink="http://www.w3.org/1999/xlink" x="0px"
	 y="0px" width="620.562px" height="569.125px" viewBox="427.374 117.846 620.562 569.125"
	 style="enable-background:new 427.374 117.846 620.562 569.125;" xml:space="preserve">
<style type="text/css">
<![CDATA[
	.st0{fill:none;stroke:#000000;stroke-width:20;}
]]>
</style>
<g>
	<path class="st0" d="M737.434,122.98c70.363-0.001,140.73,0.354,211.091-0.132c44.159-0.305,84.514,30.138,92.929,75.863
		c0.805,4.368,1.359,8.853,1.364,13.284c0.079,83.607,0.262,167.214-0.089,250.821c-0.088,20.904-5.918,40.952-13.967,60.133
		c-34.97,83.321-97.721,133.629-184.973,154.186c-11.699,2.755-23.864,4.026-35.888,4.775c-13.708,0.854-24.516-7.252-28.806-19.935
		c-4.555-13.465-0.744-25.976,10.134-34.606c11.969-9.495,24.283-18.656,35.435-29.051c11.116-10.359,19.866-22.829,25.592-37.13
		c0.703-1.755,1.647-3.725,1.412-5.449c-0.2-1.46-1.709-3.093-3.08-3.93c-1.056-0.645-2.794-0.192-4.229-0.192
		c-106.423-0.001-212.847,0.036-319.271-0.011c-46.842-0.021-86.284-35.019-91.898-81.416c-0.478-3.942-0.775-7.934-0.777-11.901
		c-0.043-81.533-0.046-163.064-0.026-244.599c0.012-43.975,34.185-83.392,77.768-89.636c4.711-0.675,9.513-1.022,14.272-1.028
		C595.431,122.963,666.432,122.983,737.434,122.98z M737.886,174.793c-70.039,0-140.077-0.072-210.116,0.039
		c-25.091,0.039-42.391,17.516-42.397,42.476c-0.021,79.929,0.005,159.862,0.055,239.791c0.002,3.495,0.051,7.059,0.698,10.473
		c3.349,17.657,19.655,32.341,41.104,32.237c72.749-0.354,145.503-0.126,218.252-0.127c43.236-0.001,86.473,0.083,129.708-0.068
		c19.41-0.066,35.6,12.08,33.914,34.552c-1.613,21.505-7.257,41.594-17.151,60.615c-1.249,2.401-2.729,4.687-3.891,7.124
		c-0.409,0.857,4.757-2.423,4.689-1.404c1.003,0.026-2.86,4.736-1.953,4.455c1.191-0.369,2.257-1.157,3.359-1.797
		c28.826-16.732,52.068-39.351,70.06-67.292c15.151-23.53,25.792-48.912,25.91-77.327c0.339-81.045,0.139-162.092,0.145-243.138
		c0-9.048-2.553-17.251-8.124-24.466c-9.393-12.162-22.166-16.223-37.015-16.199C876.048,174.85,806.967,174.788,737.886,174.793z"
		/>
	<path class="st0" d="M852.498,339.279c-18.255-17.215-36.031-33.92-53.729-50.705c-5.052-4.792-10.83-9.038-12.988-16.2
		c-3.09-10.24,0.581-20.726,9.321-26.417c8.579-5.583,20.473-4.682,28.291,2.614c15.161,14.146,30.137,28.494,45.176,42.769
		c10.644,10.104,21.316,20.178,31.887,30.357c11.528,11.1,11.641,25.647,0.148,36.577c-24.962,23.747-50.075,47.337-75.034,71.09
		c-6.639,6.318-14.267,8.987-23.178,6.964c-8.824-2.004-14.589-7.619-16.896-16.406c-2.294-8.743-0.113-16.515,6.352-22.76
		c15.258-14.743,30.677-29.315,46.033-43.956C842.591,348.718,847.304,344.229,852.498,339.279z"/>
	<path class="st0" d="M622.402,339.581c11.524,10.962,22.815,21.693,34.096,32.438c8.89,8.466,17.944,16.769,26.607,25.46
		c12.957,12.998,6.925,34.595-10.874,38.866c-8.663,2.079-16.266-0.54-22.773-6.737c-20.321-19.35-40.737-38.599-61.115-57.887
		c-5.095-4.822-10.327-9.509-15.251-14.499c-10.038-10.173-9.921-24.619,0.341-34.478c25.524-24.518,51.166-48.915,76.714-73.409
		c6.856-6.575,14.9-8.488,23.796-5.853c16.654,4.933,21.675,26.147,8.983,38.539c-14.827,14.478-30.05,28.548-45.089,42.81
		C632.764,329.639,627.729,334.487,622.402,339.581z"/>
</g>
</svg>
