<?xml version="1.0" encoding="utf-8"?>
<svg version="1.1" id="swarm-review" xmlns="http://www.w3.org/2000/svg">
  <g>
    <path stroke="currentColor" d="M371.793,112.514c73.492-0.002,146.987,0.369,220.477-0.138
      c46.123-0.318,88.271,31.478,97.061,79.236c0.84,4.562,1.42,9.246,1.424,13.874c0.083,87.325,0.274,174.65-0.092,261.973
      c-0.092,21.834-6.181,42.773-14.588,62.807C639.55,617.292,574.01,669.837,482.878,691.307
      c-12.219,2.878-24.925,4.205-37.483,4.988c-14.318,0.892-25.606-7.575-30.087-20.822c-4.757-14.063-0.777-27.13,10.585-36.144
      c12.501-9.918,25.362-19.487,37.011-30.343c11.609-10.82,20.749-23.844,26.729-38.781c0.734-1.833,1.721-3.89,1.475-5.691
      c-0.208-1.525-1.785-3.231-3.216-4.105c-1.103-0.673-2.919-0.2-4.418-0.2c-111.155-0.001-222.311,0.037-333.466-0.012
      c-48.924-0.021-90.12-36.575-95.985-85.035c-0.499-4.117-0.81-8.286-0.812-12.431c-0.045-85.158-0.048-170.315-0.027-255.474
      c0.012-45.93,35.705-87.099,81.225-93.621c4.921-0.705,9.935-1.068,14.907-1.073C223.475,112.496,297.634,112.517,371.793,112.514
      z M372.265,166.631c-73.153,0-146.306-0.075-219.459,0.04c-26.207,0.041-44.276,18.295-44.283,44.365
      c-0.021,83.484,0.006,166.969,0.058,250.452c0.002,3.651,0.053,7.374,0.729,10.939c3.498,18.443,20.529,33.779,42.932,33.671
      c75.984-0.369,151.971-0.131,227.956-0.133c45.158-0.001,90.317,0.087,135.475-0.07c20.273-0.07,37.182,12.616,35.422,36.087
      c-1.684,22.462-7.58,43.443-17.914,63.311c-1.304,2.508-2.85,4.894-4.064,7.44c-0.427,0.895-0.195,2.103-0.265,3.167
      c1.048,0.028,2.176,0.313,3.124,0.02c1.244-0.386,2.357-1.209,3.508-1.877c30.108-17.476,54.384-41.1,73.175-70.284
      c15.824-24.577,26.938-51.087,27.062-80.765c0.354-84.648,0.145-169.299,0.15-253.949c0-9.45-2.666-18.018-8.485-25.554
      c-9.809-12.702-23.152-16.944-38.66-16.919C516.57,166.69,444.418,166.625,372.265,166.631z"/>
    <path stroke="currentColor" d="M491.972,338.43c-19.067-17.98-37.633-35.427-56.117-52.959
      c-5.276-5.005-11.311-9.441-13.566-16.92c-3.226-10.695,0.607-21.648,9.737-27.591c8.961-5.831,21.383-4.89,29.549,2.73
      c15.836,14.775,31.477,29.761,47.185,44.672c11.117,10.553,22.264,21.074,33.304,31.706c12.041,11.594,12.158,26.788,0.156,38.204
      c-26.073,24.803-52.303,49.441-78.371,74.25c-6.934,6.599-14.901,9.387-24.208,7.274c-9.217-2.093-15.237-7.958-17.646-17.135
      c-2.397-9.132-0.118-17.249,6.634-23.773c15.935-15.398,32.041-30.618,48.079-45.91
      C481.626,348.288,486.548,343.599,491.972,338.43z"/>
    <path stroke="currentColor" d="M251.646,338.745c12.038,11.45,23.831,22.659,35.613,33.88
      c9.285,8.842,18.742,17.513,27.791,26.591c13.532,13.576,7.232,36.134-11.358,40.596c-9.047,2.171-16.988-0.565-23.786-7.038
      c-21.224-20.211-42.548-40.314-63.833-60.461c-5.321-5.036-10.785-9.931-15.928-15.143c-10.485-10.625-10.363-25.715,0.355-36.011
      c26.66-25.608,53.441-51.089,80.125-76.673c7.161-6.867,15.562-8.866,24.854-6.113c17.394,5.152,22.637,27.31,9.382,40.253
      c-15.486,15.121-31.386,29.818-47.094,44.713C262.469,328.361,257.21,333.424,251.646,338.745z"/>
  </g>
</svg>
