<svg xmlns="http://www.w3.org/2000/svg" width="591.563" height="540.123" viewBox="-295.281 290.438 591.563 540.123"><path stroke="currentColor" fill="currentColor" d="M68.783 830.062c-8.202 0-14.534-4.812-17.372-13.2-3.16-9.343-.782-17.491 6.876-23.567 2.611-2.071 5.239-4.128 7.869-6.185 9.414-7.364 19.15-14.979 28.17-23.386 12.438-11.592 21.878-25.295 28.057-40.729l.234-.574c.944-2.296 2.373-5.766 1.803-9.943-.702-5.12-4.477-9.096-7.773-11.11-1.973-1.204-4.264-1.813-6.813-1.813-.857 0-1.625.066-2.187.114-.175.016-.349.034-.518.041l-195.023.012c-41.396 0-82.773-.005-124.169-.022-41.727-.021-76.969-31.237-81.976-72.617-.473-3.897-.703-7.398-.704-10.705-.039-74.564-.048-154.571-.026-244.592.01-39.157 30.401-74.183 69.188-79.739a92.136 92.136 0 0112.867-.927c45.772-.041 91.556-.047 137.332-.047l75.957.001c20.824 0 41.651.031 62.479.062 20.837.031 41.674.063 62.509.063 33.268 0 60.556-.081 85.878-.256l.589-.002c40.55 0 75.22 28.461 82.437 67.675.803 4.355 1.193 8.113 1.199 11.487l.044 41.306c.079 68.654.159 139.647-.135 209.46-.071 17.144-4.263 35.035-13.188 56.306-16.611 39.578-40.172 72.142-70.026 96.786-29.342 24.223-65.685 41.562-108.019 51.535-9.571 2.254-20.124 3.649-34.217 4.527-.452.025-.9.039-1.342.039zm73.466-76.685c-.981 1.043-1.761 2.099-2.574 3.2a75.562 75.562 0 01-3.568 4.527l-20.231 23.752 30.27-7.565c4.838-1.209 9.505-3.282 12.628-5.544 1.089-.517 1.979-1.068 2.655-1.487.197-.122.395-.246.593-.361 29.705-17.241 54.416-40.971 73.448-70.526 18.396-28.565 27.391-55.617 27.503-82.699.245-58.659.207-118.29.171-175.957a94137.87 94137.87 0 01-.025-67.223c0-11.517-3.436-21.804-10.208-30.578-10.44-13.518-25.095-20.088-44.802-20.088h-.146c-28.994.047-60.112.069-100.898.069L.729 322.883c-19.759 0-39.521-.006-59.282-.011-19.765-.006-39.527-.012-59.289-.012-35.769 0-64.861.02-91.56.062-30.345.047-52.374 22.116-52.381 52.475-.02 72.394-.002 148.592.055 239.799.002 3.921.071 8.103.874 12.33 4.438 23.395 25.761 40.374 50.702 40.374l.276-.001c27.797-.135 58.127-.197 95.449-.197 20.379 0 40.754.018 61.13.036 20.381.018 40.762.034 61.145.034H9.1c11.246 0 22.493.007 33.739.013 11.251.005 22.501.011 33.751.011 24.636 0 43.597-.027 61.48-.09h.123c7.907 0 14.594 2.513 18.825 7.074 3.814 4.11 5.482 9.739 4.958 16.729-1.525 20.356-6.775 38.919-16.051 56.749-.342.658-1.11 1.667-1.854 2.644a64.397 64.397 0 00-1.822 2.475z"/><path stroke="currentColor" fill="currentColor" d="M70.958 585.083c-1.109 0-2.29-.142-3.508-.417-5.166-1.173-8.077-4.009-9.438-9.193-1.378-5.255-.26-9.272 3.628-13.027 10.884-10.518 22.047-21.135 32.843-31.401 4.384-4.168 8.767-8.336 13.144-12.51l22.253-21.201-22.769-21.462c-13.288-12.52-25.84-24.344-38.615-36.463-.872-.825-1.765-1.638-2.656-2.45-4.11-3.739-6.678-6.193-7.638-9.379-1.804-5.974.238-11.92 5.201-15.152 2.002-1.303 4.396-1.992 6.916-1.992 3.422 0 6.651 1.256 9.096 3.536 11.185 10.437 22.471 21.175 33.386 31.559 3.908 3.721 7.817 7.438 11.729 11.152l6.989 6.629c8.168 7.744 16.614 15.752 24.846 23.68 3.704 3.565 5.655 7.471 5.645 11.292-.015 4.685-2.972 8.479-5.45 10.836-12.271 11.675-24.793 23.512-36.899 34.958a16165.448 16165.448 0 00-38.137 36.134c-4.594 4.365-8.23 4.871-10.566 4.871zM-70.671 585.138c-3.511 0-6.823-1.531-10.132-4.682-14.604-13.905-29.494-27.984-43.896-41.602-5.748-5.435-11.497-10.868-17.242-16.308-1.588-1.502-3.188-2.991-4.788-4.48-3.578-3.33-6.959-6.476-10.219-9.778-3.032-3.073-4.609-6.631-4.56-10.288.048-3.599 1.677-7.04 4.71-9.955a22109.388 22109.388 0 0142.532-40.712c11.397-10.89 22.796-21.78 34.175-32.69 2.998-2.875 5.981-4.213 9.394-4.213 1.444 0 3.006.246 4.644.73 4.342 1.286 7.462 4.568 8.561 9.004 1.144 4.617-.249 9.399-3.725 12.792-10.039 9.803-20.467 19.61-30.551 29.095-4.816 4.531-9.635 9.063-14.434 13.614-3.545 3.357-7.073 6.74-10.695 10.211l-4.77 4.567-7.577 7.246 17.866 16.994a39066.01 39066.01 0 0123.82 22.665c2.653 2.527 5.32 5.039 7.988 7.552 6.123 5.767 12.454 11.729 18.434 17.728 3.57 3.582 4.859 8.317 3.536 12.993-1.307 4.615-4.827 7.93-9.661 9.09a14.66 14.66 0 01-3.41.427z"/></svg>